<svg width="92" height="75" viewBox="0 0 92 75" fill="none" xmlns="http://www.w3.org/2000/svg">
<path d="M45.8312 72.2918C45.8312 72.2918 43.1712 30.9668 42.7912 25.9001C42.3479 20.1368 42.0946 17.5084 41.6512 14.0568C40.1312 4.05011 30.4729 3.00511 24.2979 1.51677C20.1812 0.788439 15.2412 0.281772 7.22956 0.0917723C0.262891 -0.0665611 -0.180442 -0.0665609 0.0412245 0.471772C0.167891 0.851772 1.14956 3.60677 5.20289 11.4601C8.49622 17.8251 13.8162 27.5468 22.3979 42.1134C40.0046 72.0068 44.8179 74.5401 45.7996 74.6984C45.8629 74.6984 45.8629 74.6984 45.9896 74.6984L45.8312 72.2918Z" fill="url(#paint0_linear_50_2)"/>
<path d="M46.0529 72.2918C46.0529 72.2918 48.7129 30.9668 49.0929 25.9001C49.5362 20.1368 49.7896 17.5084 50.2329 14.0568C51.7529 4.05011 61.4112 3.00511 67.5862 1.51677C71.7029 0.788439 76.6429 0.281772 84.6546 0.0917723C91.6212 -0.0665611 92.0646 -0.0665609 91.8429 0.471772C91.7162 0.851772 90.7346 3.60677 86.6812 11.4601C83.3879 17.8251 78.0679 27.5468 69.4862 42.1134C51.8796 72.0068 47.0662 74.5401 46.1162 74.6984C46.0212 74.6984 46.0212 74.6984 45.9262 74.6984L46.0529 72.2918Z" fill="url(#paint1_linear_50_2)"/>
<defs>
<linearGradient id="paint0_linear_50_2" x1="-0.000954903" y1="38.072" x2="50.5532" y2="38.0523" gradientUnits="userSpaceOnUse">
<stop offset="0.605" stop-color="white"/>
</linearGradient>
<linearGradient id="paint1_linear_50_2" x1="45.9253" y1="38.072" x2="96.4446" y2="38.0524" gradientUnits="userSpaceOnUse">
<stop offset="0.605" stop-color="white"/>
</linearGradient>
</defs>
</svg>
